<svg xmlns="http://www.w3.org/2000/svg" viewBox="0 0 370.6 270.86"><defs><style>.cls-1{fill:#1c251e;}.cls-2{fill:#d0d3d8;}.cls-3{fill:#fcdc05;}.cls-4{fill:#d8dbdf;}.cls-5{fill:#fafbfa;}.cls-6{fill:#e9da57;}</style></defs><g id="Layer_2" data-name="Layer 2"><g id="Layer_1-2" data-name="Layer 1"><path class="cls-1" d="M356.52,144.9c-.56.28-1.34.41-1.66.87-10.9,15.37-25.38,27-39.94,38.57A111.74,111.74,0,0,0,304,194.52,4.7,4.7,0,0,0,302.5,197c-4.16,20.6-18.45,30-37.56,34-1.45.3-2.89.66-4.34,1a9.92,9.92,0,0,0-5.43.11c-1.76-.41-3.51-.83-5.27-1.21-6.6-1.41-14.11,2.1-18.13,8.46-2.09,2.24-5.7,2.27-7.39,5.08-1.83-.41-3,.76-4.36,1.68-5.2,3.55-10.67,6.86-16.76,8.2-5.06,1.12-8.35,4.08-11.6,7.52l-5.81,1.47c-10,.08-18.61,5.81-28.41,6.61l-6.72.71c-5.26-1.09-10.56-.61-15.85-.35-1.7-.78-3.11.57-4.7.63L115.78,270l-5.87-.26c-5.71-1.47-11.41-3.1-17.41-1.9L88.89,267c-4.22-3.12-9.43-2.8-14.18-4.1l-6.54-1.56c-3.71-3.1-8.25-3.45-12.76-3.92L46.32,253c-1.56-2.61-4.38-3.29-6.84-4.51v0c-17.58-12.22-30.55-28-37.16-48.63-.17-1-.33-2-.49-3a1.63,1.63,0,0,0-.56-2c-1.74-16.28-2.17-32.49,2-48.54,1-3.8,3.14-7.24,3.35-11.26l-.07.06c.86-1.76,3-2.72,3.12-5l-.14,0,1.1-1.16-.08.14c7.53-2.64,15-5.45,21.05-10.88a22.42,22.42,0,0,0,5.95-6c5.19-2.76,7.1-1.59,9.23,5.65l0,5-.14,2c-1.47,6.42-2.81,12.83-5.39,19-2.16,5.14-4.45,10.33-4.91,16-3,14.82,2.82,29.19,14.7,36.5,1.76,2.13,4.54,2.55,6.79,3.78,1.64.89,4.81,1.23,4.12-2.76-.29-1.64.59-2.79,1.54-4A28.87,28.87,0,0,1,75.2,184.7c3.62-1.49,7.37-3.1,8.25-7.67,2.22-2.46,2.84-4.79.52-7.8-2.12-2.75-2.63-6.31-3.33-9.72-1.6-7.82-.76-15.78-1.59-23.63v-2c.17-.74-.35-1-.88-1.26a.69.69,0,0,0-.15-.77,78.15,78.15,0,0,0-2.55-13.22l-.38-2.7c-1.56-12.77-6-25-7.69-37.7-.65-4.78-.14-9.53-.48-14.28,2.56-3.34.84-7.5,2.46-11.31a206.15,206.15,0,0,1,11.42-22C89,21.18,98.76,14,111,10.59c13.18-3.62,25.63-.95,37.49,5,4.18,2.09,4.66,1.45,4.58-3-.22-14.09-2.4-15.28,12.26-8.6,5.88,2.69,11.79,5.38,17.39,8.59,4.27,2.45,8,1.85,12.23.15,6.12-2.49,12.38-4.62,18.58-6.93a5.35,5.35,0,0,1,3.87-.28l14.1,10.64A26.51,26.51,0,0,0,239.27,22c6.74-.91,12.92-3.65,19-6.33,4.12-1.82,7.05-1.12,10.27,1.61,4.92,4.16,10.06,8.08,15.15,12,1.67,1.3,3.22,3,5.6,2.93q17.83-.39,35.67-.82c1.36.86,1.11,2.16.92,3.44-.35.56-.58,1.29-1.08,1.64-1.82,1.27-2.83,3.56-2.46,5.09.52,2.15,3,.94,4.78,1.05a16.33,16.33,0,0,1,4.33,1c17.59,6.12,29.1,18.53,36.21,35.43a77.06,77.06,0,0,1,2.41,28.71c2,7.46-2.62,13-5.39,19.09-1.62,3.58-2.75,7.38-4.11,11.08C356.75,138.79,357.33,142.26,356.52,144.9ZM279.82,30.43l-.08-.09c-4.14-3.67-8-7.72-13.35-9.75-1.89-1.08-3.65-2.82-6.05-1.1-5.49.26-10.27,2.92-15.31,4.66-3.55,1.22-6.76,1.93-9.89-.72l-.24-.17c-3.48-3.82-8.2-6.13-11.87-9.66-5.41-5.2-10.93-4.44-17.2-1.65-10.21,4.54-20.47,8.25-31.22.44-3.68-2.67-8-5.41-13.05-5.3L161.19,7A3.37,3.37,0,0,0,157,5.3c-1.6.48-1.39,2.39-1.32,3.89a143.32,143.32,0,0,0,2.92,22.23c.51,2.4-.94,5.46,2.19,7l.09.38.38.09c.94,1.53,2.55,2,4.11,2.15,19.07,2.47,37.91,6.36,56.8,9.88,10.33,1.92,20.75,3.35,30.9,6.48,5.26,1.62,11.12,4.47,17.06.37,2.1-1.44,2.79-3.77,5.05-5.07,10.88-6.27,22.1-11,35-10.86,4.7,0,9.48-.79,10.89-6.65-.17-1.72-1.25-1.12-2.2-.88l-15.15.35c-7.46-.53-15.41,2.64-22.2-2.95l0,0A1.65,1.65,0,0,0,279.82,30.43ZM263.94,66.52l-4.27,3.17c-1,.26-2.11.86-3-.29,1.92-2.08,4.64-3.32,5.8-6.36-1.05-.31-2-.67-2.91-.85-11.92-2.21-23.83-4.41-35.7-7-20.92-4.49-42.06-8.06-63.31-10.84-1.62-.21-3.13-.51-4.61.85C143.15,57,132.38,70.12,124.88,86c-8.87,18.81-15.3,38.23-17.81,58.93-.64,5.3-2.83,9.93-5.8,14.5C97.69,165,93,169.28,88.76,174.16c-1,1.12-3.34,2.24-1.18,4.48,5.19,5.37,5.25,5.39,10-.26.23-.28.81-.27,1.88-.61-.81,5.62-4.5,8.83-7.85,12-8.78,8.39-18.76,14.84-31.48,13.3-16.9-2-30.58-22.63-27.67-39.88a125.74,125.74,0,0,1,7-24.34c1.85-4.8,3.84-9.61,2.77-15,.07-2.28.24-4.57.16-6.85-.09-2.61-1.24-3.2-3.32-1.42C32.8,122.93,25.59,128.75,15.64,130a3,3,0,0,0-2.53,2c-1.72,3.69-3.81,7.24-5.08,11.08a99.8,99.8,0,0,0-3.67,49.41c2.92,16.58,11.11,30.18,23.16,41.35C41.93,247.25,59,255.39,78.37,259.45a275.42,275.42,0,0,0,41.23,5.92c19.78,1.11,39.87,2.14,59-5.53,2.79-1.12,5.68-1.81,9.17-4l-4.45-.21c-8.47-.4-17-.93-24.68-4.91-6.63-3.43-7.17-9-1.58-14,3.81-3.39,8.58-4.95,13.2-6.79,4.88-2,10-3.29,13.11-8.37,1.72-2.81,3.38-2.09,4.34,1.38.3,1.09,1.3,1.34,2.21,1.76,9,4.08,11.74,12.09,11.56,20.86-.1,5.23,1.61,4.35,4.61,3,10.52-4.64,19.89-11.11,28.95-18.11,2.86-2.21,5.1-4-.16-6.06-2.06-.81-.43-1.52.6-1.93a50.2,50.2,0,0,0,39.39,1.34c2.61-1,5.73-1.16,7.33-4,8.78-4.3,13.93-11.51,16.61-20.73,1.65-7.47,6.82-12.43,12.33-17,9.19-7.65,18.57-15.06,27.23-23.35,15.25-14.62,25.73-32.15,28-53.1,4.43-40.41-29-68.92-69.76-58.33-12.74,3.3-23,10.82-32.68,19.27l0,.27Zm-144-54.08C103.2,13.59,88,23.94,77.83,41.73,72.32,51.37,68.06,62,69.66,73.17c1.57,11,3.27,22,6.3,32.82,4.19,15,7.25,30.34,6.67,46.17A31,31,0,0,0,86.4,168c.57,1.05,1.15,3,2.8,1.24,5.75-6,12.44-11.57,14-20.27,2.1-11.76,4.43-23.42,7.4-35a156,156,0,0,1,16.15-39.43,115.6,115.6,0,0,1,25.56-30.39c4.72-4,4.31-19.18-.71-22.61C143.3,15.9,134.28,12.15,119.9,12.44ZM182,251.75c3.14-.26,6.29-.43,9.41-.82,2.17-.28,4.33-1,5.54-3,2.53-4.08,1.84-8.27-.25-12.26s-4.35-7.82-9.63-8a12.12,12.12,0,0,0-7.11,1.68c-5.68,3.49-12.67,4-18.23,7.78-2.3,1.57-5.12,3.28-4.63,6.52.44,2.89,3.27,4.05,5.8,4.93A60,60,0,0,0,182,251.75ZM67.34,199.42c8.14-2,15.31-5.21,21.4-10.63,1.73-1.53,3.29-2.9,1-5.24-1.88-2-3.58-3.35-6.25-1-1.45,1.29-3.44,1.94-5.11,3-4.47,2.78-9.37,5-12.65,9.4-.76,1-2.3,1.89-1.24,3.27C65.12,199,66.53,199.1,67.34,199.42Z"/><path class="cls-2" d="M298.83,199.05c-2.68,9.22-7.83,16.43-16.61,20.73-1.88-1.47-3.42-.1-5,.59a50.18,50.18,0,0,1-28.85,3.72c-4.42-.75-8.46-2.65-12.84-3.31l-1-1c-.11-1.08.24-2.28-.67-3.14-.12-.11-1,.2-1.06.46-.52,1.52.12,2.43,1.66,2.75.34.32.67.65,1,1l0,1.65c-1,.41-2.66,1.12-.6,1.93,5.26,2.08,3,3.85.16,6.06-9.06,7-18.43,13.47-28.95,18.11-3,1.33-4.71,2.21-4.61-3,.18-8.77-2.6-16.78-11.56-20.86-.91-.42-1.91-.67-2.21-1.76-1-3.47-2.62-4.19-4.34-1.38-3.12,5.08-8.23,6.42-13.11,8.37-4.62,1.84-9.39,3.4-13.2,6.79-5.59,5-5.05,10.54,1.58,14,7.71,4,16.21,4.51,24.68,4.91l4.45.21c-3.49,2.22-6.38,2.91-9.17,4-19.15,7.67-39.24,6.64-59,5.53a275.42,275.42,0,0,1-41.23-5.92c-19.33-4.06-36.44-12.2-50.85-25.57-12-11.17-20.24-24.77-23.16-41.35A99.8,99.8,0,0,1,8,143.12c1.27-3.84,3.36-7.39,5.08-11.08a3,3,0,0,1,2.53-2c10-1.28,17.16-7.1,23.44-14.39,3.11,2,1.17,5.88,3.16,8.27,1.07,5.36-.92,10.17-2.77,15a125.74,125.74,0,0,0-7,24.34C29.52,180.47,43.2,201.05,60.1,203.1c12.72,1.54,22.7-4.91,31.48-13.3,3.35-3.2,7-6.41,7.85-12-1.07.34-1.65.33-1.88.61-4.72,5.65-4.78,5.63-10,.26-2.16-2.24.23-3.36,1.18-4.48,4.19-4.88,8.93-9.18,12.51-14.69,3-4.57,5.16-9.2,5.8-14.5,2.51-20.7,8.94-40.12,17.81-58.93,7.5-15.92,18.27-29.08,31.1-40.8,1.48-1.36,3-1.06,4.61-.85,21.25,2.78,42.39,6.35,63.31,10.84,11.87,2.55,23.78,4.75,35.7,7,.95.18,1.86.54,2.91.85-1.16,3-3.88,4.28-5.8,6.36.85,1.15,1.93.55,3,.29l1.68,1.25c-.74.71-1.18,1.48-.34,2.39.11.11.78-.11.78-.13-.08-.74-.21-1.47-.34-2.19,1.56-1.09,3.2-2.14,2.48-4.49l.09.26,0-.27c3.88,1.26,5.76-2.09,8-3.87a70.49,70.49,0,0,1,32.26-14.5c4.78-.8,9.41,4.55,14.17.17,3.05,2.42,6.68,1.29,10.06,1.75,3.57.49,7.15,1,10,3.78a117.43,117.43,0,0,0,12.68,10.63c4.31,3.08,4.15,8.49,8.11,11.3.74.53.72,1.85.32,2.83-.76,1.84.49,3.67.35,5.14-.49,5.36,3,12.47-3.47,15.61-6,2.89-5.5,6.05-3,10.56.07.12.25.18-.09,0,9.45-1.74,8.42-9.63,9.62-16.29,1.43,3.3.9,6.45,1,9.55s.34,5.67-3.26,7.9c-2.78,1.72,2.08,5.52-.07,9.12a78.44,78.44,0,0,0-7.42,16.69c-2,6.21-8.84,8.1-10.94,14-.37,1-1.67.56-2.68.45-6.27-.72-6.27-.68-6.49,5.72a14.52,14.52,0,0,1-.08,2c-.54,3.21-3.3,4.4-5.61,5.89s-3.09-.13-3.77-2.09c-.29-.84-1.36-.82-2.16-.31-1.13.71-1.78,2.19-1.09,3,4.4,5.08.44,5.95-3.3,7.29a6.26,6.26,0,0,0-2.85,2.71c-3.56,6-11.21,8-14,14.79a2.73,2.73,0,0,1-3.45,1.31c-1.16-.38-2.35-.67-3,.76-.56,1.27.24,2.31,1.06,3.09C296.17,196.62,296.91,198.48,298.83,199.05Zm-169-83.14c-2.16-2.28-3.49-.49-4.87,1-3.45,1.33-2,4.12-1.55,6.28a3.28,3.28,0,0,0,4.21,2.5c2.79-.76,4.26-3,5-5.64C133.28,117.77,132.34,116.19,129.79,115.91ZM320.28,98.7c3.61,1.6,5.4,2.74,6.44,5.33.91,2.27,3.83,2.54,6,1.27,1.27-.74,3.44-2.81,2.5-3.61-2.45-2.09-4.1-5.19-7.36-6.31C324.35,94.16,324.19,98.41,320.28,98.7ZM179.86,166.12c-3.69.64-6.33,1.42-8.45-1-.52-.59-1.6-1.32-2.08-.43-1,1.9-3.21,3.68-1.66,6.25,1.26,2.08,2.33,3.46,5.68,3.12C178.55,173.52,177.59,169.42,179.86,166.12ZM299,102.05c2-2.56,4-3.33,6.46-3.17,1.89.11,4.77.32,4.3-2.55-.53-3.27-2.89,1.19-4.42-.65.13-1.48,1.21-3.37-.75-4.76-2.21-1.57-2.2,1.15-3.34,1.63a3.48,3.48,0,0,1-1.42.34c-3.41-.24-3.44,1.52-2.48,4C297.91,98.27,298.28,99.71,299,102.05Zm-99.33,35.78c-.46,2.3,1.14,4.77,3,4.58,2.41-.26,3.55-3.1,3.72-5.71.15-2.2-.62-4.42-3.07-4.13S199.53,134.89,199.69,137.83ZM198.26,106c3.5-1.31,5.66-2.74,8.36-.91,1.9,1.28,1.88-.94,1.89-2.17.06-4.92-3.92-5.07-8.37-6.65C203,100.17,200.8,102.58,198.26,106Zm76.53,69.13a3.53,3.53,0,0,0-3.06,3.61,5.24,5.24,0,0,0,4.6,4.83c2.59.36,3-3.12,3-4.24C279.39,176.93,276,176.94,274.79,175.11Zm-62.3-13.37c.24-2.89-1.7-4.13-3.18-5.59-.84-.83-1.7-2.54-3.14-1.39-1.06.84-.73,2.5-.39,3.73.74,2.61,3.56,3.09,5.32,4.65C212.1,164,212.39,162.29,212.49,161.74Zm7,51.1c-.11-1.15.08-3-1.76-2.64s-4.27,1.3-4.66,3.62c-.27,1.56,1.25,2.69,2.82,2.72C218.17,216.59,219.56,215.39,219.52,212.84Zm-3.67-75.1c1.78.16,2.58-.61,2.66-2.24.12-2.44-1.32-3.73-3.42-4.1s-2.39,1.26-2.46,2.84C212.52,136.58,214.11,137.32,215.85,137.74Zm-21.61-8.26c-.77-1.44-1.86-2.57-3.77-2.47-1.5.08-2.65.86-2.56,2.42.13,2.16,1.83,2.5,3.6,2.41C192.92,131.78,194.12,131.37,194.24,129.48ZM180.1,209.91c3.32,2.74,5.27.67,7.06-1.55a1.88,1.88,0,0,0-.42-2.66c-1-.85-2.25-.53-2.44.42C183.83,208.42,181.46,208.5,180.1,209.91Zm-9.81-86.15a3.22,3.22,0,0,0-2.74-2.6,2.11,2.11,0,0,0-2.57,2.3c0,1.31.44,3,2,2.89A3.93,3.93,0,0,0,170.29,123.76Zm42.82-38.05c.94,1,2,2,3.61,1.78,1.34-.17,1.76-1.32,1.7-2.55-.08-1.7-1.18-1.77-2.38-1.25C215,84.13,213.22,83.43,213.11,85.71Zm32.72,16.16c1.54,0,2.52-.59,2.54-2.23,0-1.14,0-2.54-1.75-2.1-1.41.35-2.87,1-2.86,2.82C243.76,101.62,244.81,101.82,245.83,101.87ZM169.46,95A2.15,2.15,0,0,0,167,93.19c-1,.14-1.89.76-1.72,1.92.2,1.37,1.32,1.74,2.54,1.7S169.58,96.2,169.46,95Zm33.1,129.13a3.77,3.77,0,0,0-1.73,3c-.06.69.39,1.4,1.13,1.21a3,3,0,0,0,2.39-2.72C204.46,224.6,203.9,224.08,202.56,224.1ZM288,181.94c-.27-1.08-.89-1.84-2-1.62a1.76,1.76,0,0,0-1.43,2.15,1.51,1.51,0,0,0,1.75,1.24C287.49,183.67,288.11,183.11,288,181.94Zm42.62-32.62a1.07,1.07,0,0,0,1.31-1c.09-.84,0-1.68-.92-2s-1.57.24-1.64,1.17A1.76,1.76,0,0,0,330.65,149.32ZM207,79.24a1,1,0,0,0-.93,1.36c.19.78.48,1.67,1.45,1.68s.91-.78.9-1.43A1.42,1.42,0,0,0,207,79.24Zm-64.87,22.61c-.23-.75-.84-.87-1.49-.8s-1.32.36-1.06,1.16c.09.3.76.52,1.19.57C141.44,102.84,142.11,102.73,142.17,101.85ZM106.45,162a4.65,4.65,0,0,0,.71.41s.3-.26.28-.31a4.39,4.39,0,0,0-.44-.68C106.82,161.6,106.63,161.79,106.45,162ZM258.36,72.66l.31-.17c-.09-.07-.17-.2-.26-.21s-.2.09-.3.15Z"/><path class="cls-2" d="M119.9,12.44c14.38-.29,23.4,3.46,31.68,9.12,5,3.43,5.43,18.6.71,22.61a115.6,115.6,0,0,0-25.56,30.39A156,156,0,0,0,110.58,114c-3,11.6-5.3,23.26-7.4,35-1.54,8.7-8.23,14.27-14,20.27C87.55,171,87,169.09,86.4,168a31,31,0,0,1-3.77-15.88C83.21,136.33,80.15,121,76,106c-3-10.82-4.73-21.84-6.3-32.82-1.6-11.21,2.66-21.8,8.17-31.44C88,23.94,103.2,13.59,119.9,12.44ZM107.48,35.6c1.55-2,5.81-.66,6-4.59.07-1.41-1.36-3-2.48-2.46-2.2,1-5.51.87-5.92,4.3C104.94,34.28,105.52,35.45,107.48,35.6ZM98.83,69.4c-1.9.1-1.76,1.5-1.79,2.78-.07,2.24,1.24,3.52,3.24,3.45,2.32-.08,1.91-2.46,2.09-3.84C102.71,69.12,100,70.38,98.83,69.4ZM78.37,74.87a3.63,3.63,0,0,0,3.46-3.35,2.72,2.72,0,0,0-2.58-3c-2.6,0-1.9,2.56-2.49,4.09C76.24,73.93,76.65,74.79,78.37,74.87Zm1.72,8.8A19.84,19.84,0,0,0,82.44,80c.42-1.08-.67-1.79-1.72-1.79-2.17,0-2.59,1.57-2.58,3.34C78.15,82.53,78.3,83.52,80.09,83.67ZM74.65,78.5a1.8,1.8,0,0,0-1.31,1.83c0,.93.56,1.53,1.59,1.25s1.07-1.11,1-1.94A1.16,1.16,0,0,0,74.65,78.5Zm17.53,61.39a4.85,4.85,0,0,0-.45,1.34c0,.15.61.49.77.41a4,4,0,0,0,.93-.87Zm-1.62-4.1a4.65,4.65,0,0,0-.71-.41s-.3.26-.27.32a3.93,3.93,0,0,0,.43.66Z"/><path class="cls-3" d="M161.19,7l.38.07c2.29,4.05,6.93,4.27,10.44,6.28,7.89,4.52,15.92,9,25.56,4.09,1.91-1,4.25-1.42,6.35-2.4,5.27-2.47,10.47-4.62,16.24-.43,2.77,2,5.68,3.87,8.44,5.94,1.81,1.35,3.29,4,6.3,2.69l.24.18a3.93,3.93,0,0,0,4.72,4.23c7.33-1.28,14.46-3.45,20.48-8.18,2.4-1.72,4.16,0,6.05,1.1,3.41,4.69,7.19,8.85,13.35,9.75l.07.1c-.2,1.41.58,1.61,1.7,1.37l0,0c.4,4.73,3.9,5.36,7.47,5.28,8.1-.18,16.23.63,24.3-.74,1.32-.22,3.06-.3,3.18,1.39s-1.7,1.2-2.73,1.33c-8.35,1-16.77,1.62-24.73,4.78-2.68,1.06-6.25.86-8.17,2.61-3.82,3.47-8.7,5.25-12.39,8.8-1.19,1.14-2.86,2.09-4.54,1.39-7.31-3-15.3-2.57-22.77-4.65-2.42-.67-5.73-.75-3-4.89.79-1.21-.29-2.58-1.88-2.82-1.34-.2-2.67.67-2.42,1.84,1,5-2.3,3.76-4.95,3.93-3.11.21-5.76-1.49-8.62-1.83-15.33-1.86-30.22-6.14-45.51-8-4.42-.52-8.8-2.78-13.44-1.29l-.38-.09-.09-.38c1.08-1.06,1-2.33.78-3.7-1.18-6.83-2.36-13.67-3.45-20.52C157.69,11.29,157.1,8.13,161.19,7Zm46.05,30.13c-2.4.35-2.64,2.14-2.62,4.05,0,1,0,2.48,1.25,2.2a4.53,4.53,0,0,0,3.55-4.24C209.54,37.73,208.64,37.1,207.24,37.15Zm18.28-13.67c-.14-1.35-.23-3-2.23-3.13-1.64-.08-1.64,1.36-1.64,2.51,0,1.47-.22,3.32,1.77,3.56C225.21,26.64,225.33,25,225.52,23.48Z"/><path class="cls-4" d="M298.83,199.05c-1.92-.57-2.66-2.43-4-3.67-.82-.78-1.62-1.82-1.06-3.09.63-1.43,1.82-1.14,3-.76a2.73,2.73,0,0,0,3.45-1.31c2.81-6.74,10.46-8.8,14-14.79a6.26,6.26,0,0,1,2.85-2.71c3.74-1.34,7.7-2.21,3.3-7.29-.69-.79,0-2.27,1.09-3,.8-.51,1.87-.53,2.16.31.68,2,1.49,3.55,3.77,2.09s5.07-2.68,5.61-5.89a14.52,14.52,0,0,0,.08-2c.22-6.4.22-6.44,6.49-5.72,1,.11,2.31.58,2.68-.45,2.1-5.87,9-7.76,10.94-14a78.44,78.44,0,0,1,7.42-16.69c2.15-3.6-2.71-7.4.07-9.12,3.6-2.23,3.33-4.86,3.26-7.9s.46-6.25-1-9.55c-1.2,6.66-.17,14.55-9.62,16.29.34.23.16.17.09,0-2.46-4.51-2.92-7.67,3-10.56,6.46-3.14,3-10.25,3.47-15.61.14-1.47-1.11-3.3-.35-5.14.4-1,.42-2.3-.32-2.83-4-2.81-3.8-8.22-8.11-11.3a117.43,117.43,0,0,1-12.68-10.63c-2.87-2.74-6.45-3.29-10-3.78-3.38-.46-7,.67-10.06-1.75-4.76,4.38-9.39-1-14.17-.17A70.49,70.49,0,0,0,272,62.64c-2.28,1.78-4.16,5.13-8,3.87,9.71-8.45,19.94-16,32.68-19.27,40.77-10.59,74.19,17.92,69.76,58.33-2.3,21-12.78,38.48-28,53.1-8.66,8.29-18,15.7-27.23,23.35C305.65,186.62,300.48,191.58,298.83,199.05Z"/><path class="cls-5" d="M182,251.75a60,60,0,0,1-19.1-3.15c-2.53-.88-5.36-2-5.8-4.93-.49-3.24,2.33-4.95,4.63-6.52,5.56-3.79,12.55-4.29,18.23-7.78a12.12,12.12,0,0,1,7.11-1.68c5.28.18,7.56,4,9.63,8s2.78,8.18.25,12.26c-1.21,2-3.37,2.7-5.54,3C188.26,251.32,185.11,251.49,182,251.75Z"/><path class="cls-6" d="M161.3,38.94c4.64-1.49,9,.77,13.44,1.29,15.29,1.81,30.18,6.09,45.51,8,2.86.34,5.51,2,8.62,1.83,2.65-.17,6,1,4.95-3.93-.25-1.17,1.08-2,2.42-1.84,1.59.24,2.67,1.61,1.88,2.82-2.7,4.14.61,4.22,3,4.89,7.47,2.08,15.46,1.64,22.77,4.65,1.68.7,3.35-.25,4.54-1.39,3.69-3.55,8.57-5.33,12.39-8.8,1.92-1.75,5.49-1.55,8.17-2.61,8-3.16,16.38-3.75,24.73-4.78,1-.13,2.84.25,2.73-1.33s-1.86-1.61-3.18-1.39c-8.07,1.37-16.2.56-24.3.74-3.57.08-7.07-.55-7.47-5.28,6.79,5.59,14.74,2.42,22.2,2.95h0l15.13-.34c.09,1.94,1.28,1.08,2.21.88-1.41,5.86-6.19,6.68-10.89,6.65-12.87-.09-24.09,4.59-35,10.86-2.26,1.3-3,3.63-5.05,5.07-5.94,4.1-11.8,1.25-17.06-.37C243,54.32,232.54,52.89,222.21,51c-18.89-3.52-37.73-7.41-56.8-9.88C163.85,40.89,162.24,40.47,161.3,38.94Z"/><path class="cls-5" d="M67.34,199.42c-.81-.32-2.22-.44-2.81-1.2-1.06-1.38.48-2.25,1.24-3.27,3.28-4.41,8.18-6.62,12.65-9.4,1.67-1,3.66-1.69,5.11-3,2.67-2.37,4.37-1,6.25,1,2.25,2.34.69,3.71-1,5.24C82.65,194.21,75.48,197.43,67.34,199.42Z"/><path class="cls-6" d="M234.9,23.26c-3,1.29-4.49-1.34-6.3-2.69-2.76-2.07-5.67-3.93-8.44-5.94-5.77-4.19-11-2-16.24.43-2.1,1-4.44,1.43-6.35,2.4-9.64,4.88-17.67.43-25.56-4.09-3.51-2-8.15-2.23-10.44-6.28,5.09-.11,9.36,2.63,13,5.3,10.75,7.81,21,4.1,31.22-.44C212.1,9.16,217.62,8.4,223,13.6,226.7,17.13,231.42,19.44,234.9,23.26Z"/><path class="cls-6" d="M161.19,7c-4.09,1.11-3.5,4.27-3,7.23,1.09,6.85,2.27,13.69,3.45,20.52.23,1.37.3,2.64-.78,3.7-3.13-1.59-1.68-4.65-2.19-7a143.32,143.32,0,0,1-2.92-22.23c-.07-1.5-.28-3.41,1.32-3.89A3.37,3.37,0,0,1,161.19,7Z"/><path class="cls-6" d="M260.34,19.49c-6,4.73-13.15,6.9-20.48,8.18a3.93,3.93,0,0,1-4.72-4.23c3.13,2.64,6.34,1.93,9.89.71C250.07,22.41,254.85,19.75,260.34,19.49Z"/><path class="cls-1" d="M199.69,137.83c-.16-2.94,1.25-5,3.63-5.26s3.22,1.93,3.07,4.13c-.17,2.61-1.31,5.45-3.72,5.71C200.83,142.6,199.23,140.13,199.69,137.83Z"/><path class="cls-1" d="M129.79,115.91a2.83,2.83,0,0,0,0,.5c.19,2.77.87,6.8-2.61,6.88-3.75.09-1.67-4.09-2.21-6.37C126.3,115.42,127.63,113.63,129.79,115.91Z"/></g></g></svg>