<svg xmlns="http://www.w3.org/2000/svg" viewBox="0 0 575.91 587.59"><defs><style>.cls-1{fill:none;}.cls-2{fill:#debf53;}.cls-3{fill:#cdb254;}.cls-4{fill:#d2ba66;}.cls-5{fill:#cbaf54;}.cls-6{fill:#fcf8e2;}.cls-7{fill:#3c251c;}.cls-8{fill:#f6e3a3;}.cls-9{fill:#fbfaf0;}.cls-10{fill:#fbf3d4;}.cls-11{fill:#f8e9b3;}.cls-12{fill:#f0d895;}.cls-13{fill:#e2c46a;}.cls-14{fill:#e9ce7b;}.cls-15{fill:#3c241b;}.cls-16{fill:#f0eae5;}</style></defs><g id="Layer_2" data-name="Layer 2"><g id="Layer_1-2" data-name="Layer 1"><path class="cls-1" d="M444.85,68.8l0,.28V68.8c-.88-.73-1.73-1.51-2.65-2.18q-19.38-14.1-38.79-28.19l-.32-.2-.16-.29-.23.23-1.08-.26c-4.47-4.74-10.12-7.55-16.06-9.89l-.77-.86c-9.51-6.16-20-10.23-30.58-14A228.24,228.24,0,0,0,239,3.28c-30.67,5.13-57.9,17.38-79.86,40C154,48.53,149.16,54,144,59.18c-10.44,10.45-23.65,16.61-36.67,22.89-28.54,13.76-50.52,34.26-65.24,62.38C35,157.92,29.52,172,27.46,187.17a.48.48,0,0,0-.12.66,27.76,27.76,0,0,0-1,3.29c-3.94,20.75-6.59,41.78-13.75,61.82-3.65,10.19-6.94,20.49-8.86,31.17l-.18,1.35A48.75,48.75,0,0,0,1.4,299.19a2.59,2.59,0,0,0,0,2.42c-2,13.18-1.66,26.37.08,39.55a157.7,157.7,0,0,0,8,38c.2,1,.32,2,.6,2.9,12.92,43.49,40.14,77.6,71.48,109a372.55,372.55,0,0,0,47.86,45.78,239.29,239.29,0,0,0,27.76,18.52c1.51,1,3,2.12,4.53,3,55.28,31,113.57,36.54,174.32,20.28,23.69-6.34,46.11-16.24,68.77-25.44s44.65-20,64.36-34.81c46.24-34.77,77.24-80.14,94.32-135.28C575.72,343.52,578,303,574.35,262c-4.71-53.63-21.62-102.37-58.91-142.56-7-7.51-14-15.06-23-20.39a25.22,25.22,0,0,0-2.74-2.73c-12.05-8.79-25-16.16-38.07-23.25C449.84,71,447.36,69.87,444.85,68.8Z"/><path class="cls-2" d="M3.53,285.46l.18-1.35c2.45.25,3.33-.77,3.83-3.3,1.5-7.55,2.82-15.12,6.14-22.25a58.06,58.06,0,0,0,5.8-23.16c0-1.35.08-2.81,1.09-3.75,3.22-3,2.95-6.82,2.91-10.66,0-2.16-.26-4.46.37-6.45,2.75-8.72,4.25-17.55,3.49-26.71a.48.48,0,0,1,.12-.66c3.31-4.11,6.23-8.38,6-14A13.86,13.86,0,0,1,35,166c2-3.95,6-6.94,6.27-11.64.18-3.06.92-5.53,3.33-7.4,1.89-1.46,3-6,4.78-4.75,3,2-1.33,4.3-1.82,6.68,0,.16-.05.33-.09.49-2.35,8.83-7,17.14-6.12,26.72a5.39,5.39,0,0,1-.55,2.39,23.35,23.35,0,0,0-1.38,14.21c2.21,10,11.34,13.24,20.08,7.86,3.7-2.29,3.72-5.86,5.9-8.53,4-5,9-9.84,11.08-15.64,3.1-8.56,9.93-14.1,14.63-21.25,4.53-6.92,12.42-11.4,17.78-18.12,5-6.24,11.78-10.48,18.35-14.92,2.28-1.54,4.62-3.47,4.24-6.86l-.14-.22a13.56,13.56,0,0,0,9.18-7.76h0c1.43-.06,2.61-.47,2.91-2.1h0a2.81,2.81,0,0,0,2.8-2.1l.18-.09.87-.84.07-.14c3-.19,4.43-2.06,5.24-4.67a2.85,2.85,0,0,0,.72-.41,1.8,1.8,0,0,0,2-1.81l0,0a1.77,1.77,0,0,0,1.85-2l.11-.13a1.81,1.81,0,0,0,2-1.86l.07,0c3,.32,4.25-1,3.91-3.94l.07-.09c4.4-3,8.55-6.28,10.23-11.69h0a4.62,4.62,0,0,0,3.74-4.21l0,0c1.71-.17,2.13-1.35,2.19-2.81v0c3.29-1.19,5.73-3.12,6.08-6.9l0,0a2.44,2.44,0,0,0,1.92-2l-.1-.11a30.4,30.4,0,0,0,8.06-8l0,0c7.81-5.61,15.46-11.46,24-16a6.26,6.26,0,0,0,5-2.06,2.45,2.45,0,0,0,.92-.23c13.37-4.15,27-6.79,41-6l8.9.28a6.1,6.1,0,0,0,1.33.66c10.87,2.11,21.91,3.2,32.85,4.89a64.18,64.18,0,0,0,22.28-.3c5.61-1.14,7.28-3.43,7.47-9.32,1.39-.21,3.43.46,3.73-1.55s-1.52-2.34-3.07-2.45c-1.84-.14-2.85-1.61-4.24-2.46-3.58-2.18-5.75-6.7-11-6.14,2.14-1.67,4.21-1.36,6.37-1.11,7.05.83,13.79,2.19,20.31,5.51,6.07,3.08,13.26,3.74,19.05,7.76,4.31,3,9.26,4,14.37,4.42l.77.86c3.19,5.73,9.53,7.28,14.42,10.76.23.16,1.08-.56,1.64-.87l1.07.26.4.06.32.2c-.29,2.55-.32,4.86,2.34,6.5,5,3.11,10.25,5.68,14.92,9.81a97,97,0,0,0,21.28,13.74,4.07,4.07,0,0,0,2.9.32v.28l0-.28c-.81,4.91.53,5.74,6.84,4.31,13.09,7.09,26,14.46,38.07,23.25a25.22,25.22,0,0,1,2.74,2.73c-.57,3.24-2.82,3.19-5.32,2.79-9.83-1.6-13.87,2.79-12.46,12.61,1.31,9.1,5.21,17.21,9.84,24.72,4.28,6.94,9.11,14,16.58,18.2,15.24,8.65,21.88,23.18,26,39a153.34,153.34,0,0,1,4.68,31.22A144,144,0,0,1,528.17,269c-1,4.21-2.69,7.35-8.69,6.36-9.68-1.59-19,.39-27.87,5.16a43.75,43.75,0,0,0-15.26,14,52.8,52.8,0,0,0-8.64,38.81c.82,5.18,1.19,11.59,7.84,13.92.37,2.75,2.4,3.95,4.7,4.59a5.31,5.31,0,0,1,3.79,2.83c1.95,4,6.18,6.84,5.91,12a2.65,2.65,0,0,0,1.36,2c6.21,2.72,11.43,8.41,19.2,6.54l4,.14c-1.11,5-1.35,10.2-3.1,15.09-5.66,15.77-15.15,29.26-25.12,42.48-2.32,3.07-4.89,3.57-8.13,1.47-5.05-3.27-10.58-4.93-16.59-4-6.2,1-12.39,1.52-18.3,4.32-13.76,6.53-22.71,17-26.77,31.44-2.83,10.07-1,19.78,4.17,28.81,1.24,2.18,1.54,3.16-.94,5.08-4.81,3.74-10.58,5.37-15.56,8.3-7.59,4.47-15.64,7.06-23.88,9-8.52,2-16.74,5-25.31,7-13.7,3.13-26.42,9.49-38.58,16.81-8.52,5.13-16.38,11.38-25.83,15-21.62,8.22-43.81,8.6-66.24,5a196.29,196.29,0,0,1-31.5-7.46,152.48,152.48,0,0,1-27-12.66,11.45,11.45,0,0,0-5.66-1.75c-2.24,0-4.14.19-5.66,2.3-1.68,2.32.2,3.63.88,5.37,1.07,2.73,4.25,5.07,1.7,8.53a239.29,239.29,0,0,1-27.76-18.52,372.55,372.55,0,0,1-47.86-45.78c-.92-5.15,1.36-9.89,1.87-14.86a24.45,24.45,0,0,0-.68-6.89c-1.92-10.49-9.23-16.82-17-23-8-6.39-15.49-13.46-21.28-21.87-8-11.67-15.27-23.84-19.76-37.44-.74-2.25-2.51-5.45-5.26-4.06-4.32,2.18-6.27.33-8.26-2.9-.29-.47-1.14-.59-1.74-.88a157.7,157.7,0,0,1-8-38q0-19.79-.08-39.55a2.59,2.59,0,0,1,0-2.42c2.14-.54,2-2.27,2.06-3.92Q3.51,290.37,3.53,285.46ZM35.38,255.1a2.85,2.85,0,0,0-3.06,2l-.95,1c-2.57.73-3.42,2.8-4,5.1a15.77,15.77,0,0,0-1.82,2.29c-7.66,14.6-10.23,30.41-11,46.64a154.3,154.3,0,0,0,5.25,49.36c2.5,8.88,5.89,17.72,11.89,25.06,1.3,1.59,3.09,4.36,5.72,2.71,2.33-1.46,2.42-4.29,1.51-6.8-4.17-11.5-6-23.46-7.1-35.57-1.11-12.53.12-24.77,7.46-35.31,8.61-12.38,10.78-26.26,10.93-40.71.05-4.91-.54-10-4.82-13.63-2.39-4.64-5.9-5.38-10-2.1ZM360.44,435.23l-1-.09c-2.54-5.22-6.55-9.38-10-13.95-.23-6.36-5.39-12.94-11.88-14.88-18.56-5.55-34.5-1.15-47.14,13.48-9.41,10.88-11.78,23.94-8.53,37.67.88,3.74,3.08,8.51,7.77,9.43,2.2.44,4.62.68,6.95,1,1.81,1.39,3.58,2.82,3.9,5.3,1.71,1.93,1.65,5.49,3.37,6.51,5.4,3.22,9.46,8.86,16.5,9.3,8.65.54,17.22,1.11,24.09-5.7,9.07-4,13.78-11.86,18.05-20.14,0-.59,0-1.17,0-1.76l.11-.12c1.91-.34,2.43-1.75,2.93-3.42a31.45,31.45,0,0,0,.89-9.65c1.75-1.67.29-3.71.56-5.57C367.7,438.05,365.34,435.68,360.44,435.23Zm-176.85-114a2.28,2.28,0,0,0,1.88-2.06l.12-3.94c3.78-3.38,1.31-7.78,1.81-11.68s-1.21-6.73-5.17-8a6.43,6.43,0,0,1-4.89-5.63c-.26-1.77-.24-4.89-3.81-3.84.24-3.1-.81-5.48-3.68-7a5.52,5.52,0,0,1-3.3-4.1c-1-7.36-6.3-10.17-12.56-11.61-10-2.3-19.32-.64-28.93,3.5-17.18,7.39-28.18,29.34-21.93,48.48.94,2.88,1.36,7.19,4.34,7.95,6.51,1.66,10.76,6.33,15.87,9.89-.45,3.17,2.87,3.66,4.07,5.69,3,5.13,7.23,8.49,13.6,8.29,3.45-.11,6.92,0,10.38,0,1.64,0,3.38.14,4.14-1.86,5.5-2.37,12.14-2.44,16-8a2.57,2.57,0,0,0,2-2l2-2a2.39,2.39,0,0,0,2-2l1-1C180.48,327.38,183.93,325.39,183.59,321.25Zm80.85-150.07c.43-3.85-.46-7.6-1-11.37-.21-1.56.54-3.57-1.59-4.29-2.33-.78-1.95,2.27-3.74,2.88-1-1.9-1.39-4.67-4.51-4.22l-3.27-5.84c.87-4.18-.5-6.46-5.1-6l0,0c-.26-4.23-5.82-7.58-2-12.59.65-.85-.68-1.88-1.6-2.72-4.6-4.22-10.76-5.25-16.23-6.47-9-2-18.29,0-26.51,4.37-19.64,10.44-27,30.53-24.24,51.92.28,2.26.82,5.35,3.36,5.69,6.5.86,8.16,6.23,10.18,10.74,1.6,3.56,3.58,5.75,7.2,6.69-.43,3.83,1.26,6.21,4.76,7.75,1.23.55,2.76,1,3.54,2.48,3.29,6.3,11.57,9.88,18.3,7.84a25.5,25.5,0,0,1,7.35-.95c1.64,0,3.42.18,4.07-2,12.5-2.78,20.21-11.21,26-22C263.27,186.35,264.25,178.86,264.44,171.18ZM163.39,515a2,2,0,0,0,2.15-1.74c11-4.94,17.39-13.54,20.25-25,1-.41,1.29-1.28,1.7-2.22,3.06-7.08,1.8-14.53,2-21.85a56.07,56.07,0,0,0-.93-7.68c-1.64-8.61-10.57-8.37-15.09-13.33-3.88-2-3.36-8.51-9.11-8.78-.66,0,.23-1.7.83-2.44,1.73-2.14,1.2-3.44-.89-5.32-5.59-5-12.05-6.71-19.36-7.82-14.95-2.26-27.23,2.89-37.15,13A45.41,45.41,0,0,0,94.63,460.6c-.46,6.71-1.32,13.69,2.54,19.94.93,1.5,2.09,4.2,3.84,2.86,2.36-1.82,3,.74,4.43.78,1.81,4,3.48,8.07,5.45,12,2.61,5.17,6.38,9.08,12.45,10,3.27,2.39,3,7.05,7.31,9.32,9.81,5.16,20,3.22,30.19,3.5,2.62.07,2.6-2,2.44-3.94ZM397.46,128.14l0,.05A17.94,17.94,0,0,1,405,133.1c5.43,6,13.47,4.93,20.63,5.72,1.79.19,4-1.41,4.93-3.62a58.63,58.63,0,0,0,6.58-2.26c7.95-3.8,13.51-9.53,14.49-18.76,5.23-5.28,3.24-16.76-3.43-19.19-1.48-.54-1.75-1.95-2.75-2.63-3.51-2.37-2.71-8.4-8-9.2-3.63-1.19-6.48-5.31-5.56-7.33,2.58-5.7-2.4-5.55-4.39-8-4-4.86-9.56-4.22-14.71-5.45-15.37-3.69-36.62,3.5-42.73,19.75-2.63,7-2.31,14.1-.68,21,1.53,6.46,5.5,12,9.43,17.37,1.75,2.41,3.21,2.81,5.76,2.16,2.34-.59,4.84-1.62,7,.49C394.58,123.64,394.85,127.26,397.46,128.14Zm60.13,135.1c3.75-3,1.92-7.13,1.67-10.54-.4-5.4.39-12.25-5.33-15-3.61-1.77-5.73-4.16-8-6.92a9.61,9.61,0,0,0-2.43-1.58c-.26-2.2-1.85-3.57-3.39-4.76a9.15,9.15,0,0,1-4-7.56c0-4.63-3.16-7-6.91-8.76-10.39-4.91-21.27-6.7-32.42-3.64-14.83,4.06-26.63,12.1-33.56,26.56a55.7,55.7,0,0,0-4.68,34.39,14.77,14.77,0,0,0,12.89,11.8,14.83,14.83,0,0,0,4.93,6A20.42,20.42,0,0,0,386,293.34c1.37.68,2.93,1.52,2.93,3.09,0,5,3.6,6.25,7.26,7.4,7.44,2.34,15.11,1.09,22.7,1.26a2.63,2.63,0,0,0,2.67-1.83l2.85-.23c2.49-.53,5.28-.55,6.21-3.7,7.82-1.7,12.65-7.52,17.63-13,1.74-1.93,3.61-4,3.42-7C456.5,275,457.2,269.18,457.59,263.24Zm-366-71.93c-3.42,5.29-6.94,10.51-10.22,15.88a31.62,31.62,0,0,0-4.72,12c-.57,4,.51,7.52,4.14,10,3.82,2.6,7.33,1.59,10.62-.77a32.67,32.67,0,0,0,7.72-7.71c13.64-19.37,26.44-39.36,42.28-57.13,4.47-5,4.8-9.79,1.61-13-4.27-4.31-8.22-1.15-12.15.93-4.11-1.92-5.31,2.23-7.56,3.85a126,126,0,0,0-14.2,11.5c-4.82,4.71-9,10-13.4,15.21C93.45,184.69,91.48,187.57,91.57,191.31Z"/><path class="cls-3" d="M475.55,347.23c-6.65-2.33-7-8.74-7.84-13.92a52.8,52.8,0,0,1,8.64-38.81,43.75,43.75,0,0,1,15.26-14c8.85-4.77,18.19-6.75,27.87-5.16,6,1,7.69-2.15,8.69-6.36a144,144,0,0,0,3.68-41.35,153.34,153.34,0,0,0-4.68-31.22c-4.16-15.86-10.8-30.39-26-39-7.47-4.24-12.3-11.26-16.58-18.2-4.63-7.51-8.53-15.62-9.84-24.72-1.41-9.82,2.63-14.21,12.46-12.61,2.5.4,4.75.45,5.32-2.79,9,5.33,16,12.88,23,20.39,37.29,40.19,54.2,88.93,58.91,142.56,3.6,41,1.37,81.48-10.9,121.09-17.08,55.14-48.08,100.51-94.32,135.28-19.71,14.82-41.64,25.58-64.36,34.81s-45.08,19.1-68.77,25.44c-60.75,16.26-119,10.77-174.32-20.28-1.57-.89-3-2-4.53-3,2.55-3.46-.63-5.8-1.7-8.53-.68-1.74-2.56-3.05-.88-5.37,1.52-2.11,3.42-2.32,5.66-2.3a11.45,11.45,0,0,1,5.66,1.75,152.48,152.48,0,0,0,27,12.66,196.29,196.29,0,0,0,31.5,7.46c22.43,3.61,44.62,3.23,66.24-5,9.45-3.59,17.31-9.84,25.83-15,12.16-7.32,24.88-13.68,38.58-16.81,8.57-2,16.79-5,25.31-7,8.24-2,16.29-4.56,23.88-9,5-2.93,10.75-4.56,15.56-8.3,2.48-1.92,2.18-2.9.94-5.08-5.14-9-7-18.74-4.17-28.81,4.06-14.48,13-24.91,26.77-31.44,5.91-2.8,12.1-3.36,18.3-4.32,6-.92,11.54.74,16.59,4,3.24,2.1,5.81,1.6,8.13-1.47,10-13.22,19.46-26.71,25.12-42.48,1.75-4.89,2-10.08,3.1-15.09,3-.43,6.15.76,9-1.08l2.92-.26c2.06-.24,4.17-.39,5.22-2.64a11.67,11.67,0,0,0,5.55-2.1,39.52,39.52,0,0,0,16.47-18.82,4.22,4.22,0,0,0,2-2.09c3.92-6.87,4.19-14.5,4.8-22.07a37.3,37.3,0,0,0-1.93-15c-.45-9.19-7.71-14.4-12.27-21.86-1,2.39-2.94,3.58-2.74,5.86-2.62-1.66-5.37-3.1-8-4.73-3.8-2.35-7.68-5.1-12.41-5.22-6.3-.18-12.61-.07-18.92,0-1.44,0-3.4-.49-4.07,1.09-1.29,3-4.42,3.22-6.51,4.92-4.45,3.62-10.57,6.12-9.93,13.51a.32.32,0,0,1-.2.46c-6.47.79-3.06,5.86-3.92,9.08-.08.31-.15.63-.22.94-3.22,1.64-.82,4.94-2.07,7.08-4.12,7.11.45,14.09.92,21C478.39,346.92,478.58,347.13,475.55,347.23Zm-13.82,95.91c-15.77,0-31.25,13-34,28.56-2.32,13.31,4.7,23.79,17.88,26.69,14.44,3.18,31.83-7.3,38-22.9C490.25,458.64,479.81,443.19,461.73,443.14Z"/><path class="cls-4" d="M384.76,27.16c-5.11-.45-10.06-1.43-14.37-4.42-5.79-4-13-4.68-19.05-7.76-6.52-3.32-13.26-4.68-20.31-5.51-2.16-.25-4.23-.56-6.37,1.11,5.29-.56,7.46,4,11,6.14,1.39.85,2.4,2.32,4.24,2.46,1.55.11,3.35.52,3.07,2.45s-2.34,1.34-3.72,1.55C327.36,10.57,311.48,8.71,295.51,7.09c-6.66-1.62-13.4-.92-20.12-.74L268.72,7a1,1,0,0,0-1.45,0c-5.19-.48-10.33.26-15.39,1.14-10.92,1.9-22.09,2.78-32.54,6.9a78.22,78.22,0,0,0-17.93,6,22.06,22.06,0,0,0-8,4h0a6.5,6.5,0,0,0-4,2.07c-3.13.86-5.47,3-7.92,4.92l-1.94,1.24-2.12,1.82v0A2.23,2.23,0,0,0,175.29,37l0,0c-5,3.3-9.86,6.85-13.09,12.12l-.81.85c-1.16.69-2.17,1.5-2.18,3l0,0a2.15,2.15,0,0,0-2,2l0,0A2.74,2.74,0,0,0,155.18,57c-15,16.95-34.49,27.42-54.37,37.22-10.86,5.36-20.71,12-29,20.84-12.65,13.47-20.76,29.59-26,47.18-3.05,10.27-5.1,20.78-2.63,31.49,2,8.41,8.83,10.3,14.74,4a75.81,75.81,0,0,0,9.23-12.35c10.57-17.3,22.08-33.85,36.89-47.85a197.61,197.61,0,0,1,27.43-22.29c.38,3.39-2,5.32-4.24,6.86-6.57,4.44-13.37,8.68-18.35,14.92-5.36,6.72-13.25,11.2-17.78,18.12-4.7,7.15-11.53,12.69-14.63,21.25-2.1,5.8-7,10.67-11.08,15.64-2.18,2.67-2.2,6.24-5.9,8.53-8.74,5.38-17.87,2.19-20.08-7.86a23.35,23.35,0,0,1,1.38-14.21,5.39,5.39,0,0,0,.55-2.39c-.86-9.58,3.77-17.89,6.12-26.72,0-.16.06-.33.09-.49.49-2.38,4.8-4.64,1.82-6.68-1.8-1.24-2.89,3.29-4.78,4.75-2.41,1.87-3.15,4.34-3.33,7.4C41,159.07,37,162.06,35,166a13.86,13.86,0,0,0-1.59,7.15c.25,5.63-2.67,9.9-6,14C29.52,172,35,157.92,42.07,144.45c14.72-28.12,36.7-48.62,65.24-62.38,13-6.28,26.23-12.44,36.67-22.89C149.16,54,154,48.53,159.14,43.28c22-22.62,49.19-34.87,79.86-40A228.24,228.24,0,0,1,354.18,13.2C364.76,16.93,375.25,21,384.76,27.16Z"/><path class="cls-5" d="M9.45,379.17c.6.29,1.45.41,1.74.88,2,3.23,3.94,5.08,8.26,2.9,2.75-1.39,4.52,1.81,5.26,4.06,4.49,13.6,11.75,25.77,19.76,37.44,5.79,8.41,13.29,15.48,21.28,21.87,7.74,6.18,15,12.51,17,23a24.45,24.45,0,0,1,.68,6.89c-.51,5-2.79,9.71-1.87,14.86-31.34-31.4-58.56-65.51-71.48-109C9.77,381.13,9.65,380.14,9.45,379.17Z"/><path class="cls-4" d="M27.34,187.83c.76,9.16-.74,18-3.49,26.71-.63,2-.39,4.29-.37,6.45,0,3.84.31,7.67-2.91,10.66-1,.94-1.05,2.4-1.09,3.75a58.06,58.06,0,0,1-5.8,23.16c-3.32,7.13-4.64,14.7-6.14,22.25-.5,2.53-1.38,3.55-3.83,3.3,1.92-10.68,5.21-21,8.86-31.17,7.16-20,9.81-41.07,13.75-61.82A27.76,27.76,0,0,1,27.34,187.83Z"/><path class="cls-4" d="M444.82,68.8a4.07,4.07,0,0,1-2.9-.32,97,97,0,0,1-21.28-13.74c-4.67-4.13-9.87-6.7-14.92-9.81-2.66-1.64-2.63-4-2.34-6.5q19.39,14.1,38.79,28.19C443.09,67.29,443.94,68.07,444.82,68.8Z"/><path class="cls-4" d="M1.38,301.61q0,19.77.08,39.55C-.28,328-.66,314.79,1.38,301.61Z"/><path class="cls-4" d="M401.59,37.91c-.56.31-1.41,1-1.64.87-4.89-3.48-11.23-5-14.42-10.76C391.47,30.36,397.12,33.17,401.59,37.91Z"/><path class="cls-4" d="M451.68,73.11c-6.31,1.43-7.65.6-6.84-4.31C447.36,69.87,449.84,71,451.68,73.11Z"/><path class="cls-4" d="M3.53,285.46q0,4.91-.07,9.81c0,1.65.08,3.38-2.06,3.92A48.75,48.75,0,0,1,3.53,285.46Z"/><polygon class="cls-4" points="403.06 38.23 402.67 38.17 402.9 37.94 403.06 38.23"/><path class="cls-6" d="M131.51,115.25a197.61,197.61,0,0,0-27.43,22.29c-14.81,14-26.32,30.55-36.89,47.85A75.81,75.81,0,0,1,58,197.74c-5.91,6.33-12.79,4.44-14.74-4-2.47-10.71-.42-21.22,2.63-31.49,5.23-17.59,13.34-33.71,26-47.18,8.26-8.79,18.11-15.48,29-20.84C120.69,84.46,140.17,74,155.18,57A1.89,1.89,0,0,0,157.29,55l0,0a1.77,1.77,0,0,0,2-2l0,0c2,0,2.2-1.47,2.18-3l.81-.85c7.84-.29,8.9-7.89,13.09-12.12l0,0a1.87,1.87,0,0,0,2.09-1.95v0a2,2,0,0,0,2.12-1.82L181.44,32c.53,2.44,2,1.67,3.35.91,1.73-1,3.37-2.1,5.11-3s4.35-1.55,5.52,0c1.34,1.79-.49,3.68-2,4.93-1.1.89-3.28,1.29-2.34,3.12,1.09,2.13,3.14,1,4.84.46s3.85-2.46,5.16.18c1.14,2.29.24,4.51-1.86,6.12s-4.19,3.37-3.67,6.52l0,0c-5.19.15-7.31,2.24-8.06,8l.1.11c-1.29.06-2,.62-1.92,2l0,0c-3.15,1.31-5.64,3.2-6.08,6.9v0A3.26,3.26,0,0,0,177.37,71l0,0a5.45,5.45,0,0,0-3.74,4.21h0C168.94,78.11,165,81.56,163.36,87l-.07.09A4.9,4.9,0,0,0,159.38,91l-.07,0a2.18,2.18,0,0,0-2,1.86l-.11.13a2.22,2.22,0,0,0-1.85,2l0,0a2.12,2.12,0,0,0-2,1.81,2.85,2.85,0,0,1-.72.41c-2.83.34-4.37,2.14-5.24,4.67l-.07.14-.87.84-.18.09c-1.39.08-2.59.43-2.8,2.1h0a3.13,3.13,0,0,0-2.91,2.1h0c-3.74,1.78-8.15,2.77-9.18,7.76Z"/><path class="cls-7" d="M250.37,148.34l3.27,5.84c.94,5.68,3.37,11.09,3.12,17-.26,10.91-4,20.53-11.67,28.24-8.94,9-19.83,12.5-32.45,9.64-5.71-2.35-11.27-4.95-16-9a26.48,26.48,0,0,0-1.86-2.9c-8.39-10.23-11.6-21.78-9.43-34.93,3-18.17,18.86-31.71,36.62-31,9.37.38,16.59,5.25,23.34,11.12l0,0Zm-49.31,17.1c.4,1.41-.67,3.89,1.82,4.37s2.63-2,3.18-3.65a19,19,0,0,1,7.19-9.91c1.19-.82,2.1-1.85,1.4-3.3-.61-1.28-2-.95-3.13-.9C205.7,152.29,201.22,158,201.06,165.44Z"/><path class="cls-7" d="M300.53,473.16c-.32-2.48-2.09-3.91-3.9-5.3.3-1.48-.68-2.51-1.29-3.67-9.88-18.91-2-39.41,18.05-46.82,8-3,16-2.1,24.06-.14,10.77,4.68,17.61,12.81,21,24,.06,1.68.13,3.36.19,5,1.72,17.57-16.56,37.74-39.73,34.57C312.18,479.72,306.82,475.32,300.53,473.16Zm6.08-25.49c.26,1.47-.09,3.56,1.8,4.53a1.86,1.86,0,0,0,2.63-1.53c.77-4.73,3.46-8.08,7.19-10.82a2.58,2.58,0,0,0,1.09-3.06c-.61-1.42-2-.8-3.05-.64C311.45,436.91,306.74,442.46,306.61,447.67Z"/><path class="cls-8" d="M45.41,257.18c4.28,3.59,4.87,8.72,4.82,13.63-.15,14.45-2.32,28.33-10.93,40.71-7.34,10.54-8.57,22.78-7.46,35.31,1.06,12.11,2.93,24.07,7.1,35.57.91,2.51.82,5.34-1.51,6.8-2.63,1.65-4.42-1.12-5.72-2.71-6-7.34-9.39-16.18-11.89-25.06a154.3,154.3,0,0,1-5.25-49.36c.77-16.23,3.34-32,11-46.64a15.77,15.77,0,0,1,1.82-2.29c2.49-.79,4.06-2.3,4-5.1l.95-1c1.51.08,2.82-.13,3.06-2h0C38.88,255.1,41.74,258.07,45.41,257.18Z"/><path class="cls-9" d="M130.85,151.48c3.93-2.08,7.88-5.24,12.15-.93,3.19,3.21,2.86,8-1.61,13-15.84,17.77-28.64,37.76-42.28,57.13a32.67,32.67,0,0,1-7.72,7.71c-3.29,2.36-6.8,3.37-10.62.77-3.63-2.47-4.71-6-4.14-10a31.62,31.62,0,0,1,4.72-12c3.28-5.37,6.8-10.59,10.22-15.88,3.53-4.12,7-8.3,10.6-12.34C111,169.09,120.93,160.26,130.85,151.48Z"/><path class="cls-5" d="M371.45,277.18a14.77,14.77,0,0,1-12.89-11.8A55.7,55.7,0,0,1,363.24,231c6.93-14.46,18.73-22.5,33.56-26.56,11.15-3.06,22-1.27,32.42,3.64,3.75,1.77,6.87,4.13,6.91,8.76a9.15,9.15,0,0,0,4,7.56c1.54,1.19,3.13,2.56,3.39,4.76l-2,1c-1.31-1.26-2.61-2.53-3.94-3.77-12.2-11.31-26.23-14.09-41.94-9-12.07,3.91-19.62,12.5-24.47,23.84-3.55.26-3.47,3-3.6,5.44-.37,6.92.49,13.87-.53,20.78-.36,2.44,1,3.72,3.45,3.7.38.54.76,1.07,1.13,1.61Z"/><path class="cls-5" d="M105.44,484.18c-1.45,0-2.07-2.6-4.43-.78-1.75,1.34-2.91-1.36-3.84-2.86-3.86-6.25-3-13.23-2.54-19.94a45.41,45.41,0,0,1,13.13-28.81c9.92-10.09,22.2-15.24,37.15-13,7.31,1.11,13.77,2.8,19.36,7.82,2.09,1.88,2.62,3.18.89,5.32-.6.74-1.49,2.41-.83,2.44,5.75.27,5.23,6.79,9.11,8.78,0,1.07,0,2.13,0,3.2-1-1.1-2-2.19-3-3.29-15.68-17.48-42-17.86-56.16-.71-8.31,10-9.91,21.85-8.58,34.34Z"/><path class="cls-5" d="M245.29,142.37c-6.75-5.87-14-10.74-23.34-11.12-17.76-.74-33.63,12.8-36.62,31-2.17,13.15,1,24.7,9.43,34.93a26.48,26.48,0,0,1,1.86,2.9l-1.17-.06c-3.62-.93-5.6-3.12-7.2-6.68-2-4.51-3.68-9.88-10.18-10.74-2.54-.34-3.08-3.43-3.36-5.69C172,155.49,179.31,135.4,199,125c8.22-4.37,17.49-6.4,26.51-4.37,5.47,1.22,11.63,2.25,16.23,6.47.92.84,2.25,1.87,1.6,2.72C239.47,134.79,245,138.14,245.29,142.37Z"/><path class="cls-5" d="M391.62,123.16c-2.2-2.11-4.7-1.08-7-.49-2.55.65-4,.25-5.76-2.16-3.93-5.42-7.9-10.91-9.43-17.37-1.63-6.88-1.95-14,.68-21,6.11-16.25,27.36-23.44,42.73-19.75,5.15,1.23,10.72.59,14.71,5.45,2,2.42,7,2.27,4.39,8-.92,2,1.93,6.14,5.56,7.33-.35.71-.71,1.41-1.06,2.12-8.63-7.81-18.41-13-30.36-12.83-20.39.22-31.86,16.22-24.51,34.12,2.19,5.33,6.34,9.21,10,13.47C391.55,121.08,391.59,122.12,391.62,123.16Z"/><path class="cls-5" d="M123.34,333.19c-5.11-3.56-9.36-8.23-15.87-9.89-3-.76-3.4-5.07-4.34-7.95-6.25-19.14,4.75-41.09,21.93-48.48,9.61-4.14,18.92-5.8,28.93-3.5,6.26,1.44,11.59,4.25,12.56,11.61a5.52,5.52,0,0,0,3.3,4.1c2.87,1.53,3.92,3.91,3.68,7-.08.43-.15.86-.22,1.29-1-1.06-2.1-2.11-3.13-3.17-18.34-19-50.08-11.41-57.17,13.88-3.93,14,1.44,25.39,11.83,34.8Z"/><path class="cls-5" d="M337.45,417.23c-8-2-16-2.83-24.06.14-20,7.41-27.93,27.91-18.05,46.82.61,1.16,1.59,2.19,1.29,3.67-2.33-.29-4.75-.53-6.95-1-4.69-.92-6.89-5.69-7.77-9.43-3.25-13.73-.88-26.79,8.53-37.67,12.64-14.63,28.58-19,47.14-13.48,6.49,1.94,11.65,8.52,11.88,14.88a12.49,12.49,0,0,1-5.33-2.44C342.11,417.23,340.05,416.11,337.45,417.23Z"/><path class="cls-10" d="M195.52,51.24c-.52-3.15,1.52-4.88,3.67-6.52s3-3.83,1.86-6.12c-1.31-2.64-3.39-.73-5.16-.18s-3.75,1.67-4.84-.46c-.94-1.83,1.24-2.23,2.34-3.12,1.54-1.25,3.37-3.14,2-4.93-1.17-1.57-3.68-1-5.52,0s-3.38,2.07-5.11,3c-1.36.76-2.82,1.53-3.35-.91,2.45-1.94,4.79-4.06,7.92-4.92,1.68,0,3.58.39,4-2.07h0l2.09.15c1.42,2.75,2.74,2.65,4-.14l2-4a78.22,78.22,0,0,1,17.93-6c8.18-.64,16.27,3,24.55.37,1.81-.57,4.32.66,2.8,3-3.6,5.59-8,10.48-15.46,10.66a5.89,5.89,0,0,0-5.82,3.83,2.45,2.45,0,0,1-.92.23c-1.89.14-4.23-.81-5,2.06C211,39.78,203.33,45.63,195.52,51.24Z"/><path class="cls-11" d="M225.41,32.94a5.89,5.89,0,0,1,5.82-3.83c7.42-.18,11.86-5.07,15.46-10.66,1.52-2.34-1-3.57-2.8-3-8.28,2.66-16.37-1-24.55-.37,10.45-4.12,21.62-5,32.54-6.9,5.06-.88,10.2-1.62,15.39-1.14l1.45,0,6.67-.66a7.33,7.33,0,0,1-1.17,1.51c-1,.77-3.57-.25-3.08,2.15.33,1.59,2.21,1.09,3.46,1.13,1.92,0,3.53.34,4.43,2.4,3.13,7.19,1.25,10.28-6.53,10.62-2.38.11-5.21-.65-6.05,2.81C252.36,26.15,238.78,28.79,225.41,32.94Z"/><path class="cls-8" d="M266.45,27c.84-3.46,3.67-2.7,6.05-2.81,7.78-.34,9.66-3.43,6.53-10.62-.9-2.06-2.51-2.35-4.43-2.4-1.25,0-3.13.46-3.46-1.13-.49-2.4,2.06-1.38,3.08-2.15a7.33,7.33,0,0,0,1.17-1.51c6.72-.18,13.46-.88,20.12.74.06,2.06-2.75,1.55-3.19,3.64a25,25,0,0,0,9.35.12c1.64-.26,3.18-.36,3.61,1.51.73,3.23,3.25,3.85,5.85,4.55,1.45.4,3.44,1,3,2.72-.86,3.13-3.48,5.42-4.73,8.5-.63,1.55-3,1-4.61,1-9.85.09-19.48-3.22-29.41-1.9Z"/><path class="cls-12" d="M275.35,27.25c9.93-1.32,19.56,2,29.41,1.9,1.63,0,4,.53,4.61-1,1.25-3.08,3.87-5.37,4.73-8.5.47-1.7-1.52-2.32-3-2.72-2.6-.7-5.12-1.32-5.85-4.55-.43-1.87-2-1.77-3.61-1.51a25,25,0,0,1-9.35-.12c.44-2.09,3.25-1.58,3.19-3.64,16,1.62,31.85,3.48,43.78,16.09-.2,5.89-1.87,8.18-7.48,9.32a64.18,64.18,0,0,1-22.28.3c-10.94-1.69-22-2.78-32.85-4.89A6.1,6.1,0,0,1,275.35,27.25Z"/><path class="cls-12" d="M424.41,303l-2.85.23c-6.76.15-13.45.09-18.09-6.06,18.37,1.42,32.36-5.81,41.77-21.57,5.65-9.46,6.28-19.79,4.18-30.41,1-.69,2-1.43,2,.75,0,3.07,0,6.15.08,9.22l.18,24.14c.19,3-1.68,5.05-3.42,7-5,5.5-9.81,11.32-17.63,13C428.16,299.91,425.8,300.66,424.41,303Z"/><path class="cls-12" d="M185.8,488.25c-2.87,11.48-9.3,20.08-20.26,25a2.08,2.08,0,0,0-2.15,1.74l-.11.08c-2.54-.06-4.79,1.14-7.2,1.64-2.9.61-7.57,1.65-8.4-.3-1.56-3.72-4-3.06-6.54-3.37a2.85,2.85,0,0,1-2.5-2.1c13.73,1.56,25.14-2.63,33.9-13.54,7.13-8.86,9.8-19,9-30.22a2.07,2.07,0,0,1,1.95,1.89,7.93,7.93,0,0,0,0,2.48c1.62,5,3.06,10,.59,15.28C183.72,487.69,185,488,185.8,488.25Z"/><path class="cls-12" d="M212.64,209.06c12.62,2.86,23.51-.64,32.45-9.64,7.66-7.71,11.41-17.33,11.67-28.24l2.67,0c.09,2.65-.67,5.16-1.11,7.72-.8,4.72-2.5,9.79,1.1,14.27-5.74,10.77-13.45,19.2-26,22a62.33,62.33,0,0,0-8.43.07c-4.06.56-7.32-1.61-10.84-2.77C213.44,212.22,210.26,211.47,212.64,209.06Z"/><path class="cls-12" d="M318.92,480.8c23.17,3.17,41.45-17,39.73-34.58h2.78c0,.32,0,.65,0,1-.06,3.88.25,7.76-.78,11.61-.44,1.65-.61,3.69,1.87,4.31-4.27,8.28-9,16.16-18.05,20.14-2.12-.25-3.89.81-5.64,1.69a24,24,0,0,1-14.05,2.13C321.38,486.66,318.13,485.45,318.92,480.8Z"/><path class="cls-12" d="M451.59,114.18c-1,9.23-6.54,15-14.49,18.76a58.63,58.63,0,0,1-6.58,2.26c-6.58-1.34-13.37-1.73-20.72-4.58l3.95-.6c19.85,0,29.1-6.52,32.38-22.89.08-.08.22-.17.22-.26a5.19,5.19,0,0,0-.13-.64c-.22-1.67-.43-3.34-.65-5,.79.28,1.74.69,1.65,1.56C446.77,107.34,449.85,110.5,451.59,114.18Z"/><path class="cls-13" d="M475.55,347.23c3-.1,2.84-.31,2.59-4-.47-6.89-5-13.87-.92-21,1.25-2.14-1.15-5.44,2.07-7.08a48.29,48.29,0,0,0,3.21,31.93l.76,1.11a49.25,49.25,0,0,0,16.23,16c-.19,2.68.15,4.46,3.54,5.32,2.92.74,6.68,1.52,7.48,5.61-7.77,1.87-13-3.82-19.2-6.54a2.65,2.65,0,0,1-1.36-2c.27-5.14-4-8-5.91-12a5.31,5.31,0,0,0-3.79-2.83C478,351.18,475.92,350,475.55,347.23Z"/><path class="cls-12" d="M178.5,330.2l-1,1a2,2,0,0,0-2,2l-2,2a1.92,1.92,0,0,0-2,2c-3.9,5.56-10.54,5.63-16,8-2.35-1.46-4.86-4-7.46-3.18-3.91,1.29-6.1-.58-8.57-2.67l3.1.46,1.16.14c4.46-.37,9-.52,13.17-2.29,12.88-5.4,20.22-15.1,22.45-28.79-.35,4.69,2.82,9.64-.58,14C176.8,325.55,177.53,327.75,178.5,330.2Z"/><path class="cls-14" d="M403.47,297.2c4.64,6.15,11.33,6.21,18.09,6.06a2.63,2.63,0,0,1-2.67,1.83c-7.59-.17-15.26,1.08-22.7-1.26-3.66-1.15-7.29-2.4-7.26-7.4,0-1.57-1.56-2.41-2.93-3.09a20.42,20.42,0,0,1-9.62-10.14l1.27-.12c6.43,4.92,11.83,11.49,20.6,12.64A34.72,34.72,0,0,1,403.47,297.2Z"/><path class="cls-13" d="M451.49,255.19c0-3.07-.09-6.15-.08-9.22,0-2.18-1-1.44-2-.75l-8-15.06,2-1a9.61,9.61,0,0,1,2.43,1.58c2.28,2.76,4.4,5.15,8,6.92,5.72,2.8,4.93,9.65,5.33,15,.25,3.41,2.08,7.57-1.67,10.54C457.83,258.83,456.77,255.41,451.49,255.19Z"/><path class="cls-14" d="M212.64,209.06c-2.38,2.41.8,3.16,1.56,3.41,3.52,1.16,6.78,3.33,10.84,2.77a62.33,62.33,0,0,1,8.43-.07c-.65,2.13-2.43,1.94-4.07,2a25.5,25.5,0,0,0-7.35.95c-6.73,2-15-1.54-18.3-7.84-.78-1.5-2.31-1.93-3.54-2.48-3.5-1.54-5.19-3.92-4.76-7.75l1.17.05C201.37,204.11,206.93,206.71,212.64,209.06Z"/><path class="cls-13" d="M183.53,469.09a2.07,2.07,0,0,0-1.95-1.89c-1.31-6.22-3-12.31-6.21-17.89a2.07,2.07,0,0,0-1.4-2l-.57-.9c0-1.07,0-2.13,0-3.2,4.52,5,13.45,4.72,15.09,13.33a56.07,56.07,0,0,1,.93,7.68C185.46,463.38,184.69,466.47,183.53,469.09Z"/><path class="cls-14" d="M413.75,130l-3.95.6c7.35,2.85,14.14,3.24,20.72,4.58-.93,2.21-3.14,3.81-4.93,3.62-7.16-.79-15.2.3-20.63-5.72a17.94,17.94,0,0,0-7.46-4.91l.8-.19-.23-.4-.61.54c-2.61-.88-2.88-4.5-5.84-5,0-1-.07-2.08-.11-3.12C397.79,125.9,405.72,128.06,413.75,130Z"/><path class="cls-14" d="M139.5,339.43c2.47,2.09,4.66,4,8.57,2.67,2.6-.85,5.11,1.72,7.46,3.18-.76,2-2.5,1.85-4.14,1.86-3.46,0-6.93-.08-10.38,0-6.37.2-10.56-3.16-13.6-8.29-1.2-2-4.52-2.52-4.07-5.69l1.5-.29C129,336.75,134.39,337.77,139.5,339.43Z"/><path class="cls-14" d="M138.64,511a2.85,2.85,0,0,0,2.5,2.1c2.56.31,5-.35,6.54,3.37.83,2,5.5.91,8.4.3,2.41-.5,4.66-1.7,7.2-1.64.16,1.92.18,4-2.44,3.94-10.14-.28-20.38,1.66-30.19-3.5-4.3-2.27-4-6.93-7.31-9.32l1.39-.18,6.83,2.83c1.34,3.93,4.62,1.75,7.05,2.23Z"/><path class="cls-13" d="M318.92,480.8c-.79,4.65,2.46,5.86,5.88,6.29A24,24,0,0,0,338.85,485c1.75-.88,3.52-1.94,5.64-1.69-6.87,6.81-15.44,6.24-24.09,5.7-7-.44-11.1-6.08-16.5-9.3-1.72-1-1.66-4.58-3.37-6.51C306.82,475.32,312.18,479.72,318.92,480.8Z"/><path class="cls-13" d="M451.59,114.18c-1.74-3.68-4.82-6.84-4.37-11.4.09-.87-.86-1.28-1.65-1.56a52.08,52.08,0,0,0-9.17-15.94c.35-.71.71-1.41,1.06-2.12,5.24.8,4.44,6.83,8,9.2,1,.68,1.27,2.09,2.75,2.63C454.83,97.42,456.82,108.9,451.59,114.18Z"/><path class="cls-14" d="M130.85,151.48c-9.92,8.78-19.81,17.61-28.68,27.49-3.62,4-7.07,8.22-10.6,12.34-.09-3.74,1.88-6.62,4.12-9.27,4.36-5.17,8.58-10.5,13.4-15.21a126,126,0,0,1,14.2-11.5C125.54,153.71,126.74,149.56,130.85,151.48Z"/><path class="cls-13" d="M173.31,287.39c.07-.43.14-.86.22-1.29,3.57-1.06,3.55,2.06,3.81,3.83a6.43,6.43,0,0,0,4.89,5.63c4,1.28,5.66,4.11,5.17,8s2,8.3-1.82,11.68c.69-5-2-8-6.09-10.07A42.3,42.3,0,0,0,173.31,287.39Z"/><path class="cls-13" d="M259.43,171.2l-2.67,0c.25-5.91-2.18-11.32-3.12-17,3.12-.45,3.51,2.32,4.51,4.22,1.79-.61,1.41-3.66,3.74-2.88,2.13.72,1.38,2.73,1.59,4.29.5,3.77,1.39,7.52,1,11.37Z"/><path class="cls-14" d="M451.49,255.19c5.28.22,6.34,3.64,6.1,8.05-.39,5.94-1.09,11.78-5.92,16.09Z"/><path class="cls-4" d="M124.73,506l-1.39.18c-6.07-1-9.84-4.87-12.45-10-2-3.92-3.64-8-5.45-12q.12-3.74.23-7.46c3.13,11.16,8.64,20.74,18.31,27.58C124.42,504.61,124.49,505.44,124.73,506Z"/><path class="cls-14" d="M179.49,305.18c4.09,2.11,6.78,5.07,6.09,10.07,0,1.31-.07,2.62-.11,3.94a2,2,0,0,0-1.88,2.06c.34,4.14-3.11,6.13-5.09,8.95-1-2.45-1.7-4.65.3-7.23,3.4-4.38.23-9.33.58-14C179.42,307.69,179.45,306.43,179.49,305.18Z"/><path class="cls-14" d="M183.53,469.09c1.16-2.62,1.93-5.71,5.93-4.91-.17,7.32,1.09,14.77-2,21.85-.41.94-.69,1.81-1.69,2.22-.79-.23-2.08-.56-1.68-1.4,2.47-5.24,1-10.24-.59-15.28A7.93,7.93,0,0,1,183.53,469.09Z"/><path class="cls-14" d="M259.43,171.2l5,0c-.19,7.68-1.17,15.17-5,22-3.6-4.48-1.9-9.55-1.1-14.27C258.76,176.36,259.52,173.85,259.43,171.2Z"/><path class="cls-14" d="M510.51,375.13c-.8-4.09-4.56-4.87-7.48-5.61-3.39-.86-3.73-2.64-3.54-5.32l7.05,2.57c.5,1.35,1.48,2.44,2.87,2.24,5.68-.83,9.86,2.18,14.08,5.18-2.82,1.84-6,.65-9,1.08Z"/><path class="cls-4" d="M337.45,417.23c2.6-1.12,4.66,0,6.68,1.52a12.49,12.49,0,0,0,5.33,2.44c3.46,4.57,7.47,8.73,10,13.95-.33,2-.67,4-1,6.05C355.06,430,348.22,421.91,337.45,417.23Z"/><path class="cls-14" d="M362.54,463.13c-2.48-.62-2.31-2.66-1.87-4.31,1-3.85.72-7.73.78-11.61a9.05,9.05,0,0,1,5,1,31.45,31.45,0,0,1-.89,9.65c-.5,1.67-1,3.08-2.93,3.42l-.37-.11.26.23C362.54,462,362.54,462.54,362.54,463.13Z"/><path class="cls-13" d="M366.48,448.18a9.05,9.05,0,0,0-5-1c0-.33,0-.66,0-1,.58-3.75-.84-7.32-1-11,4.9.45,7.26,2.82,6.6,7.38C366.77,444.47,368.23,446.51,366.48,448.18Z"/><path class="cls-8" d="M163.36,87c1.66-5.43,5.58-8.88,10.23-11.69C171.91,80.71,167.76,84,163.36,87Z"/><path class="cls-8" d="M131.37,115c1-5,5.44-6,9.18-7.76A13.56,13.56,0,0,1,131.37,115Z"/><path class="cls-12" d="M45.41,257.18c-3.67.89-6.53-2.08-10-2.09C39.51,251.8,43,252.54,45.41,257.18Z"/><path class="cls-10" d="M187.48,59.18c.75-5.73,2.87-7.82,8.06-8A30.4,30.4,0,0,1,187.48,59.18Z"/><path class="cls-14" d="M360.44,435.23c.15,3.68,1.57,7.25,1,11h-2.78c-.06-1.67-.13-3.35-.19-5,.34-2,.68-4,1-6.05Z"/><path class="cls-4" d="M377.65,283.08l-1.27.12a14.83,14.83,0,0,1-4.93-6c0-1.47.07-2.95.11-4.42Z"/><path class="cls-8" d="M179.56,68.25c.44-3.7,2.93-5.59,6.08-6.9C185.29,65.13,182.85,67.06,179.56,68.25Z"/><path class="cls-5" d="M250.37,148.34l-5.1-6C249.87,141.88,251.24,144.16,250.37,148.34Z"/><path class="cls-8" d="M147.37,102c.87-2.53,2.41-4.33,5.24-4.67C151.8,99.92,150.33,101.79,147.37,102Z"/><path class="cls-8" d="M159.38,91a4.9,4.9,0,0,1,3.91-3.94C163.63,90,162.33,91.34,159.38,91Z"/><path class="cls-14" d="M424.41,303c1.39-2.37,3.75-3.12,6.21-3.7C429.69,302.48,426.9,302.5,424.41,303Z"/><path class="cls-12" d="M31.37,258c.08,2.8-1.49,4.31-4,5.1C28,260.84,28.8,258.77,31.37,258Z"/><path class="cls-8" d="M173.6,75.29a5.45,5.45,0,0,1,3.74-4.21A4.62,4.62,0,0,1,173.6,75.29Z"/><path class="cls-11" d="M219.5,35.23c.76-2.87,3.1-1.92,5-2.06A6.26,6.26,0,0,1,219.5,35.23Z"/><path class="cls-12" d="M35.38,255.1c-.24,1.86-1.55,2.07-3.06,2A2.85,2.85,0,0,1,35.38,255.1Z"/><path class="cls-8" d="M143.45,105.15c.21-1.67,1.41-2,2.8-2.1A2.81,2.81,0,0,1,143.45,105.15Z"/><path class="cls-8" d="M140.54,107.26a3.13,3.13,0,0,1,2.91-2.1C143.15,106.79,142,107.2,140.54,107.26Z"/><path class="cls-8" d="M177.37,71a3.26,3.26,0,0,1,2.19-2.81C179.5,69.69,179.08,70.87,177.37,71Z"/><path class="cls-13" d="M183.59,321.25a2,2,0,0,1,1.88-2.06A2.28,2.28,0,0,1,183.59,321.25Z"/><path class="cls-14" d="M175.57,333.28a2,2,0,0,1,2-2A2.39,2.39,0,0,1,175.57,333.28Z"/><path class="cls-14" d="M171.57,337.28a1.92,1.92,0,0,1,2-2A2.57,2.57,0,0,1,171.57,337.28Z"/><path class="cls-8" d="M153.33,96.9a2.12,2.12,0,0,1,2-1.81A1.8,1.8,0,0,1,153.33,96.9Z"/><path class="cls-8" d="M155.39,95a2.22,2.22,0,0,1,1.85-2A1.77,1.77,0,0,1,155.39,95Z"/><path class="cls-8" d="M157.35,92.93a2.18,2.18,0,0,1,2-1.86A1.81,1.81,0,0,1,157.35,92.93Z"/><path class="cls-8" d="M185.66,61.31c-.12-1.4.63-2,1.92-2A2.44,2.44,0,0,1,185.66,61.31Z"/><path class="cls-14" d="M163.39,515a2.08,2.08,0,0,1,2.15-1.74A2,2,0,0,1,163.39,515Z"/><path class="cls-8" d="M146.43,103l.87-.84Z"/><path class="cls-15" d="M506.54,366.77l-7.05-2.57a49.25,49.25,0,0,1-16.23-16l-.76-1.11a48.29,48.29,0,0,1-3.21-31.93c.07-.31.14-.63.22-.94q2-4.54,3.92-9.08a.32.32,0,0,0,.2-.46c.8-1,1.62-2.08,2.39-3.15a35.16,35.16,0,0,1,43.05-12.13c8,3.53,13.43,10,18.19,17.07l4.41,13.08c2.74,23.51-11,45.37-34.42,48.4l-4.48,0ZM495,323.3c.24,1.64-.45,4.24,2.11,4.73s2.57-2.2,3-3.75A17.09,17.09,0,0,1,507.43,314c1.31-.84,2.56-2,1.82-3.63-1-2.06-2.77-1.07-4.32-.63C499,311.46,495.14,316.67,495,323.3Z"/><path class="cls-15" d="M461.73,443.14c18.08.05,28.52,15.5,21.88,32.35-6.14,15.6-23.53,26.08-38,22.9-13.18-2.9-20.2-13.38-17.88-26.69C430.48,456.11,446,443.1,461.73,443.14Z"/><path class="cls-12" d="M517.25,368c23.43-3,37.16-24.89,34.42-48.4a4.29,4.29,0,0,1,1.83,3.59l.15,27.2a39.52,39.52,0,0,1-16.47,18.82,11.67,11.67,0,0,1-5.55,2.1c-2,.39-4.17.39-5.22,2.64l-2.92.26c-4.22-3-8.4-6-14.08-5.18-1.39.2-2.37-.89-2.87-2.24l6.23,1.26A8.41,8.41,0,0,0,517.25,368Z"/><path class="cls-5" d="M547.26,306.5c-4.76-7.08-10.14-13.54-18.19-17.07A35.16,35.16,0,0,0,486,301.56c-.77,1.07-1.59,2.1-2.39,3.15-.64-7.39,5.48-9.89,9.93-13.51,2.09-1.7,5.22-1.9,6.51-4.92.67-1.58,2.63-1.08,4.07-1.09,6.31,0,12.62-.15,18.92,0,4.73.12,8.61,2.87,12.41,5.22,2.64,1.63,5.39,3.07,8,4.73.08,1.28-.27,3.05,1.1,3.5,3.48,1.15,2.81,3.9,2.94,6.41C547.43,305.55,547.34,306,547.26,306.5Z"/><path class="cls-13" d="M547.26,306.5c.08-.48.17-.95.26-1.42C549,306,551,306.65,552,308c1.69,2.45,3.64,3.59,6.54,3.17a37.3,37.3,0,0,1,1.93,15c-3.54,1.79-4.84-1.5-6.92-3a4.29,4.29,0,0,0-1.83-3.59Z"/><path class="cls-2" d="M558.49,311.17c-2.9.42-4.85-.72-6.54-3.17-.94-1.35-2.92-2-4.43-2.92-.13-2.51.54-5.26-2.94-6.41-1.37-.45-1-2.22-1.1-3.5-.2-2.28,1.73-3.47,2.74-5.86C550.78,296.77,558,302,558.49,311.17Z"/><path class="cls-14" d="M553.5,323.17c2.08,1.54,3.38,4.83,6.92,3-.61,7.57-.88,15.2-4.8,22.07a4.22,4.22,0,0,1-2,2.09Z"/><path class="cls-5" d="M483.43,305.17q-2,4.53-3.92,9.08C480.37,311,477,306,483.43,305.17Z"/><path class="cls-14" d="M526.41,373.93c1.05-2.25,3.23-2.25,5.22-2.64C530.58,373.54,528.47,373.69,526.41,373.93Z"/><path class="cls-10" d="M175.32,37c-4.19,4.23-5.25,11.83-13.09,12.12C165.46,43.83,170.27,40.28,175.32,37Z"/><path class="cls-11" d="M195.48,25.19,193.39,25a22.06,22.06,0,0,1,8-4c-.65,1.34-1.31,2.67-2,4Z"/><path class="cls-11" d="M193.35,25c-.41,2.46-2.31,2-4,2.07A6.5,6.5,0,0,1,193.35,25Z"/><path class="cls-10" d="M161.42,50c0,1.55-.13,3-2.18,3C159.25,51.45,160.26,50.64,161.42,50Z"/><path class="cls-10" d="M177.38,35.06A1.87,1.87,0,0,1,175.29,37,2.23,2.23,0,0,1,177.38,35.06Z"/><path class="cls-10" d="M157.29,55A1.89,1.89,0,0,1,155.18,57,2.74,2.74,0,0,1,157.29,55Z"/><path class="cls-10" d="M159.27,53a1.77,1.77,0,0,1-2,2A2.13,2.13,0,0,1,159.27,53Z"/><path class="cls-10" d="M179.5,33.26a2,2,0,0,1-2.12,1.82Z"/><path class="cls-8" d="M268.72,7l-1.45,0A1,1,0,0,1,268.72,7Z"/><path class="cls-16" d="M201.06,165.44c.16-7.49,4.64-13.15,10.46-13.39,1.13-.05,2.52-.38,3.13.9.7,1.45-.21,2.48-1.4,3.3a19,19,0,0,0-7.19,9.91c-.55,1.62-.6,4.14-3.18,3.65S201.46,166.85,201.06,165.44Z"/><path class="cls-16" d="M306.61,447.67c.13-5.21,4.84-10.76,9.66-11.52,1.05-.16,2.44-.78,3.05.64a2.58,2.58,0,0,1-1.09,3.06c-3.73,2.74-6.42,6.09-7.19,10.82a1.86,1.86,0,0,1-2.63,1.53C306.52,451.23,306.87,449.14,306.61,447.67Z"/><path class="cls-15" d="M377.65,283.08l-6.09-10.32c-.37-.54-.75-1.07-1.13-1.61-1.82-10-3-20,.68-29.92,4.85-11.34,12.4-19.93,24.47-23.84,15.71-5.09,29.74-2.31,41.94,9,1.33,1.24,2.63,2.51,3.94,3.77l8,15.06c2.11,10.62,1.48,21-4.17,30.41-9.41,15.76-23.4,23-41.77,21.57a34.72,34.72,0,0,0-5.22-1.48C389.48,294.57,384.08,288,377.65,283.08Zm7.85-29.34c.37,1.16-.09,3.43,2.36,3.77,1,.14,2.44,0,2.66-1.57.84-6,4.46-10.14,9.09-13.63.93-.71,1.72-1.72,1.27-3-.61-1.7-2.15-1.22-3.41-1.12C391.3,238.68,385.36,246.14,385.5,253.74Z"/><path class="cls-4" d="M371.11,241.23c-3.66,9.9-2.5,19.9-.68,29.92-2.49,0-3.81-1.26-3.45-3.7,1-6.91.16-13.86.53-20.78C367.64,244.18,367.56,241.49,371.11,241.23Z"/><path class="cls-15" d="M124.73,506c-.24-.59-.31-1.42-.75-1.73-9.67-6.84-15.18-16.42-18.31-27.58-1.33-12.5.27-24.31,8.58-34.35,14.2-17.15,40.48-16.77,56.16.71,1,1.1,2,2.19,3,3.29l.57.9,1.4,2c3.2,5.58,4.9,11.67,6.21,17.89.76,11.2-1.91,21.36-9,30.22-8.76,10.91-20.17,15.1-33.9,13.54l0,.13-7.05-2.23Zm-3.27-41.48a7.34,7.34,0,0,0,.21,2c.5,1.53.71,3.5,2.92,3.46s1.87-2,2.15-3.34a19.33,19.33,0,0,1,7-11.7c.94-.77,2.28-1.92,1.45-3.34s-2.3-.93-3.62-.72C126.11,451.77,121.46,457.82,121.46,464.55Z"/><path class="cls-7" d="M436.4,85.28a52.08,52.08,0,0,1,9.17,15.94c.22,1.67.43,3.34.65,5a.68.68,0,0,0-.09.9C442.85,123.5,433.6,130,413.75,130c-8-2-16-4.12-22.24-10-3.64-4.26-7.79-8.14-10-13.47-7.35-17.9,4.12-33.9,24.51-34.12C418,72.32,427.77,77.47,436.4,85.28ZM403.59,99.34c0-2.1-4.85-8.32-6.92-8.69s-3.17.57-3.06,2.72c.16,3.07,4.46,7.58,7.45,7.84C402.43,101.33,403.88,101.48,403.59,99.34Z"/><path class="cls-7" d="M179.49,305.18c0,1.25-.07,2.51-.11,3.77-2.23,13.69-9.57,23.39-22.45,28.79-4.22,1.77-8.71,1.92-13.17,2.29l-1.16-.14-3.1-.46c-5.11-1.66-10.52-2.68-14.66-6.53-10.39-9.41-15.76-20.76-11.83-34.8,7.09-25.29,38.83-32.87,57.17-13.88,1,1.06,2.09,2.11,3.13,3.17A42.3,42.3,0,0,1,179.49,305.18Zm-52.3.18c.3.93-.46,2.84,1.81,3.08,1.72.18,2.17-.94,2.53-2.38.95-3.85,2.93-6.95,6.75-8.61,1.3-.57,2.32-1.62,1.78-3.07-.59-1.6-2.21-1.16-3.47-1C131.24,294,127.12,299.1,127.19,305.36Z"/><path class="cls-6" d="M195.48,25.19l4-.13C198.22,27.84,196.9,27.94,195.48,25.19Z"/><path class="cls-13" d="M446.13,107.13a.68.68,0,0,1,.09-.9,5.19,5.19,0,0,1,.13.64C446.35,107,446.21,107.05,446.13,107.13Z"/><path class="cls-3" d="M482.5,347.12l.76,1.11Z"/><path class="cls-14" d="M142.6,339.89l1.16.14Z"/><path class="cls-5" d="M175.37,449.31l-1.4-2A2.07,2.07,0,0,1,175.37,449.31Z"/><path class="cls-2" d="M397.46,128.14l.61-.54.23.4-.8.19Z"/><path class="cls-12" d="M131.56,508.86l7.05,2.23C136.18,510.61,132.9,512.79,131.56,508.86Z"/><path class="cls-12" d="M362.55,461.37l-.26-.23.37.11Z"/><path class="cls-16" d="M495,323.3c.1-6.63,4-11.84,9.89-13.52,1.55-.44,3.36-1.43,4.32.63.74,1.6-.51,2.79-1.82,3.63a17.09,17.09,0,0,0-7.26,10.24c-.45,1.55-.49,4.22-3,3.75S495.28,324.94,495,323.3Z"/><path class="cls-14" d="M517.25,368a8.41,8.41,0,0,1-4.48,0Z"/><path class="cls-16" d="M385.5,253.74c-.14-7.6,5.8-15.06,12-15.53,1.26-.1,2.8-.58,3.41,1.12.45,1.26-.34,2.27-1.27,3-4.63,3.49-8.25,7.62-9.09,13.63-.22,1.61-1.7,1.71-2.66,1.57C385.41,257.17,385.87,254.9,385.5,253.74Z"/><path class="cls-16" d="M121.46,464.55c0-6.73,4.65-12.78,10.11-13.68,1.32-.21,2.87-.57,3.62.72s-.51,2.57-1.45,3.34a19.33,19.33,0,0,0-7,11.7c-.28,1.38,0,3.31-2.15,3.34s-2.42-1.93-2.92-3.46A7.34,7.34,0,0,1,121.46,464.55Z"/><path class="cls-16" d="M403.59,99.34c.29,2.14-1.16,2-2.53,1.87-3-.26-7.29-4.77-7.45-7.84-.11-2.15,1.06-3.08,3.06-2.72S403.56,97.24,403.59,99.34Z"/><path class="cls-16" d="M127.19,305.36c-.07-6.26,4.05-11.38,9.4-12,1.26-.15,2.88-.59,3.47,1,.54,1.45-.48,2.5-1.78,3.07-3.82,1.66-5.8,4.76-6.75,8.61-.36,1.44-.81,2.56-2.53,2.38C126.73,308.2,127.49,306.29,127.19,305.36Z"/></g></g></svg>